<?xml version="1.0" standalone="no"?>
<!DOCTYPE svg PUBLIC "-//W3C//DTD SVG 20010904//EN"
 "http://www.w3.org/TR/2001/REC-SVG-20010904/DTD/svg10.dtd">
<svg version="1.0" xmlns="http://www.w3.org/2000/svg"
 width="412.000000pt" height="412.000000pt" viewBox="0 0 412.000000 412.000000"
 preserveAspectRatio="xMidYMid meet">
<metadata>
Created by potrace 1.11, written by Peter Selinger 2001-2013
</metadata>
<g transform="translate(0.000000,412.000000) scale(0.100000,-0.100000)"
fill="#000000" stroke="none">
<path d="M1988 3580 c-241 -44 -452 -199 -559 -412 -89 -176 -101 -403 -33
-610 72 -218 289 -418 521 -479 108 -29 278 -29 386 0 229 61 437 249 517 470
53 143 62 327 24 476 -62 245 -279 466 -524 535 -84 23 -257 34 -332 20z"/>
<path d="M1225 2175 c-114 -34 -240 -134 -315 -249 -112 -170 -180 -463 -183
-791 -2 -196 7 -249 60 -347 34 -62 125 -148 191 -182 125 -63 82 -61 1132
-61 894 0 959 1 1019 18 94 27 157 62 221 123 115 110 145 203 142 451 -4 424
-105 743 -290 915 -61 56 -151 109 -215 126 l-38 11 7 -37 c3 -20 10 -55 15
-77 5 -22 12 -105 15 -185 l7 -145 77 -75 c126 -123 169 -236 170 -449 0 -71
4 -91 24 -125 35 -59 41 -105 21 -152 -32 -77 -90 -117 -170 -117 -59 0 -102
20 -139 63 -54 64 -55 132 -5 215 29 46 27 261 -1 321 -47 97 -165 163 -264
149 -100 -15 -193 -100 -215 -196 -6 -24 -11 -86 -11 -137 0 -84 3 -97 31
-150 26 -48 30 -65 27 -109 -8 -93 -77 -156 -173 -156 -98 0 -172 63 -182 156
-4 36 1 55 26 103 29 56 31 65 31 169 0 180 37 282 143 392 69 72 164 125 254
143 111 21 106 13 101 148 -3 87 -8 127 -22 155 -10 20 -23 37 -28 37 -5 0
-35 -17 -66 -39 -308 -208 -717 -208 -1025 1 -33 22 -65 37 -72 34 -7 -2 -20
-27 -29 -53 -14 -41 -16 -90 -14 -293 l3 -244 56 -38 c121 -80 182 -185 182
-313 -1 -103 -31 -175 -107 -251 -77 -77 -146 -106 -257 -106 -129 -1 -230 49
-304 150 -125 171 -77 394 114 520 l56 37 6 245 c4 166 12 270 23 324 9 44 15
80 14 81 -2 2 -21 -3 -43 -10z"/>
<path d="M1325 1323 c-110 -29 -131 -193 -32 -253 18 -11 46 -20 63 -20 37 0
94 36 111 70 18 35 16 116 -3 145 -29 44 -91 70 -139 58z"/>
</g>
</svg>
